<svg width="512" height="512" viewBox="0 0 512 512" fill="none" xmlns="http://www.w3.org/2000/svg">
<g clip-path="url(#clip0_44_83)">
<circle cx="256" cy="256" r="256" fill="#EF6A2A"/>
<mask id="mask0_44_83" style="mask-type:alpha" maskUnits="userSpaceOnUse" x="0" y="0" width="512" height="512">
<circle cx="256" cy="256" r="256" fill="#0B0A09"/>
</mask>
<g mask="url(#mask0_44_83)">
<ellipse cx="256" cy="211" rx="230" ry="232" fill="#0B0A09"/>
<path d="M139 346V328.4L247.4 60.4H278.6L385 328.4V346H139ZM165 326.4H341.8L278.6 162.4C276.467 156.533 274.333 150.933 272.2 145.6C270.067 140 267.933 134.533 265.8 129.2C263.933 123.867 262.067 118.533 260.2 113.2C258.333 107.867 256.467 102.533 254.6 97.2C252.733 102 250.867 107.067 249 112.4C247.133 117.733 245.133 123.067 243 128.4C241.133 133.733 239.267 139.067 237.4 144.4C235.533 149.467 233.667 154.267 231.8 158.8L165 326.4Z" fill="#EF6A2A"/>
</g>
</g>
<defs>
<clipPath id="clip0_44_83">
<rect width="512" height="512" fill="white"/>
</clipPath>
</defs>
</svg>
